<?xml version="1.0" encoding="UTF-8" standalone="no"?>
<!-- Created with Inkscape (http://www.inkscape.org/) -->

<svg
   width="148.42644mm"
   height="32.737812mm"
   viewBox="0 0 148.42644 32.737812"
   version="1.1"
   id="svg5"
   xmlns="http://www.w3.org/2000/svg"
   xmlns:svg="http://www.w3.org/2000/svg">
  <defs
     id="defs2" />
  <g
     id="layer1"
     transform="translate(53.557288,-129.69676)">
    <g
       aria-label="Katten:3"
       id="text113"
       style="font-weight:bold;font-size:45.1556px;font-family:'Lithos Pro';-inkscape-font-specification:'Lithos Pro Bold';text-align:center;text-anchor:middle;stroke-width:2.91356;stroke-linecap:round;stroke-linejoin:round">
      <path
         d="m -53.557288,130.14831 v 31.60892 h 3.838226 v -31.60892 z m 16.256017,0 -13.591836,14.90135 14.26917,16.70757 h 4.741338 l -14.359481,-16.79788 13.682147,-14.81104 z"
         style="fill:#7f2aff"
         id="path851" />
      <path
         d="m -26.644525,155.34514 q 0,-1.12889 0.541868,-1.94169 0.541867,-0.8128 1.625601,-1.26436 1.12889,-0.45156 2.889959,-0.45156 1.896535,0 3.567292,0.49672 1.670758,0.45155 3.251204,1.53529 v -2.12232 q -0.31609,-0.4064 -1.219202,-1.03858 -0.903112,-0.67733 -2.438402,-1.17404 -1.490135,-0.54187 -3.747915,-0.54187 -3.838226,0 -6.005695,1.85138 -2.122313,1.80622 -2.122313,4.83165 0,2.12231 0.993423,3.61245 0.993423,1.49013 2.619025,2.30293 1.670757,0.76765 3.567292,0.76765 1.715913,0 3.431826,-0.63218 1.761069,-0.63218 2.935114,-1.94169 1.219201,-1.30951 1.219201,-3.29636 l -0.722489,-2.70934 q 0,1.62561 -0.812801,2.88996 -0.767645,1.2192 -2.122313,1.89654 -1.309513,0.67733 -2.98027,0.67733 -1.309512,0 -2.348091,-0.4064 -0.993424,-0.45155 -1.580446,-1.30951 -0.541868,-0.85796 -0.541868,-2.032 z m -0.541867,-9.57299 q 0.496712,-0.36125 1.354668,-0.85796 0.857957,-0.49671 2.077158,-0.85795 1.264357,-0.36125 2.799647,-0.36125 0.948268,0 1.806224,0.18062 0.857957,0.18063 1.490135,0.58703 0.677334,0.4064 1.038579,1.12889 0.361245,0.67733 0.361245,1.76107 v 14.40463 h 3.612448 v -14.90135 q 0,-2.032 -1.038579,-3.43182 -0.993423,-1.39983 -2.844803,-2.12231 -1.806224,-0.76765 -4.244626,-0.76765 -2.889959,0 -4.967117,0.85796 -2.032002,0.85795 -3.206047,1.71591 z"
         style="fill:#7f2aff"
         id="path853" />
      <path
         d="m -9.7111315,140.98566 v 3.38667 H 0.67465681 v -3.38667 z m 3.3866701,-7.2249 v 27.99647 h 3.6124481 v -27.99647 z"
         style="fill:#7f2aff"
         id="path855" />
      <path
         d="m 1.1262021,140.98566 v 3.38667 H 11.51199 v -3.38667 z m 3.3866702,-7.2249 v 27.99647 h 3.6124481 v -27.99647 z"
         style="fill:#7f2aff"
         id="path857" />
      <path
         d="m 23.162125,162.20879 q 3.341515,0 5.779917,-1.30951 2.483558,-1.35467 4.10916,-3.9737 l -2.935114,-1.85138 q -1.12889,1.89654 -2.754492,2.84481 -1.625602,0.90311 -3.747915,0.90311 -2.122313,0 -3.612448,-0.90311 -1.490135,-0.90312 -2.25778,-2.61903 -0.767645,-1.71591 -0.767645,-4.15431 0.04515,-2.39325 0.8128,-4.01885 0.812801,-1.67076 2.25778,-2.52872 1.490135,-0.90311 3.567293,-0.90311 1.761068,0 3.070581,0.76765 1.309512,0.76764 2.032002,2.12231 0.767645,1.35467 0.767645,3.20605 0,0.31609 -0.135467,0.8128 -0.135466,0.45156 -0.270933,0.67733 l 1.444979,-2.07715 H 15.62114 v 3.07058 h 17.746151 q 0,-0.0903 0,-0.4064 0.04516,-0.36125 0.04516,-0.67734 0,-3.29636 -1.174046,-5.6896 -1.174046,-2.39325 -3.38667,-3.65761 -2.167469,-1.30951 -5.23805,-1.30951 -3.070581,0 -5.418672,1.35467 -2.302936,1.35467 -3.612448,3.79307 -1.264357,2.4384 -1.264357,5.6896 0,3.20605 1.219201,5.64445 1.264357,2.43841 3.476981,3.83823 2.257781,1.35467 5.147739,1.35467 z"
         style="fill:#7f2aff"
         id="path859" />
      <path
         d="m 51.700434,149.11366 v 12.64357 h 3.612449 v -13.09512 q 0,-3.74792 -1.941691,-5.91539 -1.896536,-2.21262 -5.192894,-2.21262 -2.032003,0 -3.612449,0.90311 -1.53529,0.90311 -2.573869,2.79965 v -3.2512 h -3.612448 v 20.77157 h 3.612448 v -12.64357 q 0,-1.53529 0.632179,-2.70933 0.677334,-1.17405 1.851379,-1.80623 1.219201,-0.67733 2.799647,-0.67733 2.167469,0 3.296359,1.30951 1.12889,1.30951 1.12889,3.88338 z"
         style="fill:#7f2aff"
         id="path861" />
      <path
         d="m 62.989317,159.95101 q 0,0.99342 0.722489,1.76107 0.767646,0.72249 1.761069,0.72249 1.038579,0 1.761068,-0.72249 0.72249,-0.76765 0.72249,-1.76107 0,-1.03858 -0.72249,-1.76107 -0.722489,-0.72249 -1.761068,-0.72249 -0.993423,0 -1.761069,0.72249 -0.722489,0.72249 -0.722489,1.76107 z m 0,-17.15913 q 0,0.99342 0.722489,1.76107 0.767646,0.72249 1.761069,0.72249 1.038579,0 1.761068,-0.72249 0.72249,-0.76765 0.72249,-1.76107 0,-1.03858 -0.72249,-1.76107 -0.722489,-0.72249 -1.761068,-0.72249 -0.993423,0 -1.761069,0.72249 -0.722489,0.72249 -0.722489,1.76107 z"
         style="fill:#55d400"
         id="path863" />
      <path
         d="m 83.670555,146.17855 q 3.070581,0 5.373517,-1.08373 2.302936,-1.08374 3.612448,-2.93512 1.309513,-1.85138 1.309513,-4.064 0,-2.25778 -1.083735,-4.15432 -1.038579,-1.89653 -3.025425,-3.07058 -1.941691,-1.17404 -4.651027,-1.17404 -2.573869,0 -4.605871,1.08373 -1.986847,1.03858 -3.160893,2.88996 -1.12889,1.85138 -1.12889,4.33494 h 3.657604 q 0,-2.07716 1.535291,-3.43183 1.53529,-1.39982 3.747915,-1.39982 1.580446,0 2.619024,0.63218 1.083735,0.63217 1.625602,1.80622 0.541867,1.12889 0.541867,2.61902 0,1.12889 -0.451556,2.12232 -0.4064,0.99342 -1.219201,1.76107 -0.812801,0.72249 -1.986846,1.17404 -1.174046,0.4064 -2.709337,0.4064 z m 1.354669,16.03024 q 2.844802,0 5.057427,-1.08374 2.212624,-1.08373 3.476981,-3.07058 1.309513,-1.98684 1.309513,-4.65102 0,-2.34809 -0.903112,-4.01885 -0.857957,-1.67076 -2.438403,-2.70934 -1.53529,-1.08373 -3.567292,-1.58044 -1.986847,-0.49672 -4.289783,-0.49672 v 2.48356 q 1.535291,0 2.844803,0.36125 1.309513,0.36124 2.302936,1.12889 0.993423,0.72249 1.535291,1.85138 0.587022,1.08373 0.587022,2.52871 0,1.71591 -0.722489,2.98027 -0.72249,1.26436 -2.077158,1.98685 -1.309512,0.67733 -3.115736,0.67733 -1.806225,0 -3.206048,-0.67733 -1.399824,-0.67734 -2.212625,-1.85138 -0.767645,-1.17405 -0.767645,-2.66418 h -3.883382 q 0,1.85138 0.72249,3.47698 0.72249,1.58044 2.032002,2.79964 1.309513,1.17405 3.160892,1.85138 1.85138,0.67734 4.154316,0.67734 z"
         style="fill:#55d400"
         id="path865" />
    </g>
  </g>
</svg>
